<?xml version="1.0" encoding="utf-8"?>
<svg width="30" height="30" viewBox="0 0 30 30" fill="none" xmlns="http://www.w3.org/2000/svg">
  <g>
    <path d="M12.0039 0C5.37491 0 0 5.373 0 12C0 18.627 5.37491 24 12.0039 24C22.0139 24 24.2691 14.707 23.3301 10C23.3301 10 22 10 22 10L19.7324 10L12 10L12 14C12 14 19.7383 14 19.7383 14C18.8487 17.4483 15.726 20 12 20C7.582 20 4 16.418 4 12C4 7.582 7.582 4 12 4C14.009 4 15.8391 4.74575 17.2441 5.96875C17.2441 5.96875 20.0859 3.12891 20.0859 3.12891C17.9519 1.18491 15.1169 0 12.0039 0C12.0039 0 12.0039 0 12.0039 0Z" fill="#FFFFFF" transform="translate(3 3)" />
  </g>
</svg>